<svg xmlns="http://www.w3.org/2000/svg" width="130.097" height="126.179" viewBox="0 0 34.421 33.385">
    <path d="M21.956 5.818l-2.491.003-.003-2.49 2.49-.004zm3.064-3.64l-2.178.003L22.84.003 25.018 0zm3.257 4.92l-3.036.003-.004-3.036 3.036-.004zm-1.467 3.575l-2.657.004-.005-3.48-4.05.004v1.267l-3 .004-.003-3.512s-.204.006-.453.006c-4.612.006-10.568 4.09-10.56 11.038.007 4.946 2.725 8.213 5.318 11.103l5.744 6.278 5.728-6.293c2.587-2.897 5.295-6.17 5.289-11.117a11.051 11.051 0 00-1.351-5.302m0 0l-2.657.004-.005-3.48-4.05.004v1.267l-3 .004-.003-3.512-.614.006a11.004 11.004 0 00-10.4 11.037c.007 4.946 2.725 8.213 5.318 11.103l5.744 6.278 5.728-6.293c2.587-2.897 5.295-6.17 5.289-11.117a11.051 11.051 0 00-1.351-5.302" fill="#96bb37"/>
    <path d="M14.18 18.128l.545-2.122h-.001c.025.006 2.31.62 4.903.571l.003 2.168c-3.15.233-5.45-.617-5.45-.617m-6.265 1.461l-1.06-1.918c2.613-1.443 5.235-1.718 5.345-1.729l.22 2.18c-.023.002-2.3.25-4.505 1.466m14.223-3.148c.022-.003 2.284-.365 4.424-1.693l1.05 1.933c-2.395 1.484-5.035 1.91-5.145 1.926l-.327-2.166M3.69 21.893l-1.044-1.924 2.682-1.457 1.046 1.926zm25.429-6.094l-1.064-1.92 2.608-1.575 1.113 1.895z" fill="#333279"/>
    <path d="M13.4 17.538a3.703 3.703 0 013.695-3.704 3.703 3.703 0 013.704 3.694 3.703 3.703 0 01-3.694 3.703 3.703 3.703 0 01-3.704-3.694m11.946 7.148l-3.766-3.693a5.635 5.635 0 001.188-3.467 5.675 5.675 0 00-5.676-5.66 5.675 5.675 0 00-5.661 5.675 5.675 5.675 0 005.676 5.661 5.628 5.628 0 003.014-.88l3.846 3.771a.983.983 0 001.393-.014.985.985 0 00-.014-1.393" fill="#fff"/>
</svg>
