<svg xmlns="http://www.w3.org/2000/svg" width="416.924" height="169.666" viewBox="0 0 110.311 44.891">
    <path d="M41.455 19.03c.386-.22.688-.528.907-.922.22-.394.33-.84.329-1.343a2.713 2.713 0 00-.332-1.342c-.22-.393-.524-.7-.91-.919a2.568 2.568 0 00-1.296-.328c-.48 0-.91.111-1.296.332-.386.22-.688.527-.908.92a2.708 2.708 0 00-.328 1.344c0 .501.112.95.332 1.342.22.393.524.7.91.92.386.22.818.327 1.296.327a2.57 2.57 0 001.296-.332m-3.57 1.388A4.034 4.034 0 0136.3 18.92c-.383-.636-.575-1.35-.576-2.146 0-.795.19-1.51.57-2.148a4.036 4.036 0 011.584-1.5c.675-.364 1.433-.546 2.274-.547.84 0 1.597.18 2.269.54.672.362 1.2.861 1.587 1.498.387.635.58 1.351.582 2.146 0 .794-.191 1.51-.576 2.147a4.09 4.09 0 01-1.584 1.501c-.67.364-1.427.546-2.268.547-.84.001-1.6-.18-2.275-.54m9.594-.43c-.645-.64-.968-1.553-.97-2.742l-.005-4.537 1.874-.002.006 4.467c.002 1.451.605 2.175 1.808 2.174.587 0 1.035-.177 1.343-.528.308-.352.46-.902.46-1.65l-.006-4.468 1.852-.002.006 4.537c.002 1.188-.32 2.103-.963 2.744s-1.543.962-2.7.964c-1.158.001-2.06-.317-2.705-.957m10.334-5.766l-2.593.004-.001-1.528 7.06-.01.002 1.528-2.593.004.008 6.574-1.875.002zm9.647 5.023c.81 0 1.456-.228 1.938-.68.48-.452.722-1.064.72-1.835 0-.772-.242-1.383-.725-1.834-.483-.45-1.13-.676-1.94-.675l-1.712.003.007 5.023zm-3.596-6.558l3.68-.005c.88 0 1.658.166 2.333.5a3.77 3.77 0 011.576 1.416c.375.61.563 1.32.564 2.13 0 .81-.185 1.52-.558 2.13a3.77 3.77 0 01-1.573 1.42c-.674.335-1.452.504-2.331.505l-3.68.005zm15.367 6.294c.385-.22.688-.528.907-.922.219-.394.329-.84.328-1.343a2.71 2.71 0 00-.332-1.342 2.37 2.37 0 00-.91-.92 2.574 2.574 0 00-1.296-.327c-.48 0-.91.11-1.296.331-.386.22-.688.528-.907.921-.22.394-.33.842-.328 1.344 0 .501.11.948.33 1.342.22.393.525.7.91.92a2.57 2.57 0 001.298.326c.478 0 .91-.11 1.296-.33m-3.57 1.387a4.036 4.036 0 01-1.587-1.497c-.383-.636-.575-1.35-.576-2.146 0-.795.19-1.51.57-2.147a4.039 4.039 0 011.584-1.502c.675-.363 1.433-.545 2.274-.546.84 0 1.597.18 2.269.54a4.09 4.09 0 011.588 1.497c.386.636.58 1.352.58 2.147.002.794-.19 1.51-.575 2.147a4.09 4.09 0 01-1.584 1.501c-.67.364-1.426.546-2.267.547-.841 0-1.6-.179-2.275-.54m13.916-1.402c.385-.22.688-.528.907-.92.219-.395.328-.843.328-1.344a2.71 2.71 0 00-.332-1.343 2.37 2.37 0 00-.91-.919 2.57 2.57 0 00-1.296-.328 2.57 2.57 0 00-1.296.332c-.386.22-.688.527-.907.921-.22.394-.33.842-.328 1.343 0 .502.11.95.33 1.342.22.394.525.7.91.92a2.58 2.58 0 001.298.327c.478 0 .91-.11 1.296-.33m-3.57 1.387a4.039 4.039 0 01-1.587-1.497c-.383-.636-.575-1.352-.576-2.146 0-.795.19-1.51.57-2.148a4.039 4.039 0 011.584-1.5c.675-.364 1.433-.547 2.274-.548.84 0 1.597.18 2.269.541a4.09 4.09 0 011.588 1.497c.386.636.58 1.351.58 2.146.002.795-.19 1.51-.575 2.148a4.09 4.09 0 01-1.584 1.5c-.67.364-1.426.546-2.267.547-.841.002-1.6-.178-2.275-.54m13.378-5.822c-.294-.243-.722-.364-1.286-.363l-1.527.002.004 2.824 1.527-.002c.563 0 .99-.125 1.285-.372.292-.247.438-.595.438-1.042 0-.455-.148-.805-.441-1.047m.482 6.21l-1.565-2.256h-.093l-1.632.002.003 2.257-1.875.002-.01-8.1 3.506-.006c.718 0 1.34.118 1.87.356.529.24.936.578 1.223 1.017.285.44.429.96.43 1.562 0 .602-.144 1.121-.432 1.558-.29.436-.7.77-1.231 1.002l1.82 2.602z" fill="#303278"/>
    <path d="M44.577 24.142l-3.474 8.055-1.84.003-3.484-8.046 2.013-.003 2.457 5.747 2.477-5.753zm1.242 0l1.863-.004.01 8.05-1.862.003zm5.157 7.922c-.594-.172-1.072-.395-1.433-.67l.63-1.405c.346.253.757.456 1.233.608.475.153.95.23 1.426.228.53 0 .92-.08 1.173-.237.253-.158.38-.367.379-.627a.6.6 0 00-.225-.477 1.703 1.703 0 00-.576-.304 11.3 11.3 0 00-.95-.252 13.11 13.11 0 01-1.506-.435 2.447 2.447 0 01-1.008-.7c-.28-.322-.42-.75-.421-1.288 0-.468.125-.89.378-1.27s.634-.683 1.143-.905c.51-.224 1.132-.336 1.869-.337.513 0 1.016.06 1.506.182s.92.298 1.29.528l-.574 1.415c-.744-.42-1.49-.63-2.232-.63-.521.001-.906.086-1.156.255-.248.17-.372.392-.372.668 0 .275.144.48.432.614.288.134.727.266 1.317.396.614.145 1.116.29 1.507.435a2.49 2.49 0 011.007.688c.28.314.42.74.422 1.276 0 .46-.128.88-.384 1.26s-.641.681-1.154.904c-.514.223-1.138.335-1.874.336a6.589 6.589 0 01-1.847-.256m7.103-7.939l1.863-.003.01 8.05-1.863.003zm9.542 6.261c.383-.219.683-.524.9-.915.22-.392.328-.836.327-1.335 0-.498-.11-.943-.33-1.333a2.363 2.363 0 00-.903-.914 2.556 2.556 0 00-1.29-.326c-.474.001-.903.11-1.286.33a2.354 2.354 0 00-.902.915 2.688 2.688 0 00-.326 1.335c0 .498.11.943.33 1.333.219.391.52.696.903.914.384.217.814.326 1.29.326.475 0 .904-.11 1.287-.33m-3.546 1.38a4.01 4.01 0 01-1.578-1.488c-.38-.632-.571-1.343-.572-2.133 0-.79.188-1.5.566-2.134a4.017 4.017 0 011.574-1.49c.67-.363 1.424-.544 2.26-.545.835 0 1.587.178 2.254.538a4.07 4.07 0 011.578 1.487c.384.632.576 1.343.577 2.133 0 .79-.19 1.501-.571 2.134a4.071 4.071 0 01-1.574 1.491c-.667.362-1.418.543-2.254.544-.835 0-1.59-.178-2.26-.538m16.016-7.669l.01 8.05-1.53.003-4.02-4.883.007 4.888-1.84.002-.01-8.05 1.54-.002 4.009 4.882-.006-4.887zM24.404 10l-2.491.003-.003-2.49 2.49-.004zm3.064-3.64l-2.178.003-.002-2.178 2.178-.003zm3.257 4.92l-3.036.003-.004-3.036 3.036-.004zm-1.467 3.575l-2.657.004-.005-3.48-4.05.004v1.267l-3 .004-.003-3.512s-.204.006-.453.006c-4.612.006-10.568 4.09-10.56 11.038.007 4.946 2.725 8.213 5.318 11.103l5.744 6.278 5.728-6.293c2.587-2.897 5.295-6.17 5.289-11.117a11.051 11.051 0 00-1.351-5.302m0 0l-2.657.004-.005-3.48-4.05.004v1.267l-3 .004-.003-3.512-.614.006A11.004 11.004 0 008.53 20.185c.006 4.946 2.724 8.213 5.317 11.103l5.744 6.278 5.728-6.293c2.587-2.897 5.295-6.17 5.289-11.117a11.051 11.051 0 00-1.351-5.302" fill="#96bb37"/>
    <path d="M16.628 22.31l.545-2.122h-.001c.025.006 2.31.62 4.903.571l.003 2.168c-3.15.233-5.45-.617-5.45-.617m-6.265 1.461l-1.06-1.918c2.613-1.443 5.235-1.718 5.345-1.729l.22 2.18c-.023.002-2.3.25-4.505 1.466m14.223-3.148c.022-.003 2.284-.365 4.424-1.693l1.05 1.933c-2.395 1.484-5.035 1.91-5.145 1.926l-.327-2.166m-18.45 5.453l-1.044-1.924 2.682-1.457 1.046 1.926zm25.429-6.094l-1.064-1.92 2.608-1.575 1.113 1.895z" fill="#333279"/>
    <path d="M15.849 21.72a3.703 3.703 0 013.694-3.704 3.703 3.703 0 013.704 3.694 3.703 3.703 0 01-3.694 3.703 3.703 3.703 0 01-3.704-3.694m11.946 7.148l-3.766-3.693a5.635 5.635 0 001.188-3.467 5.675 5.675 0 00-5.676-5.66 5.675 5.675 0 00-5.661 5.675 5.675 5.675 0 005.676 5.661 5.628 5.628 0 003.014-.88l3.846 3.771a.983.983 0 001.393-.014.985.985 0 00-.014-1.393" fill="#fff"/>
</svg>
